<svg xmlns="http://www.w3.org/2000/svg" xmlns:xlink="http://www.w3.org/1999/xlink" viewBox="0 0 171 32"><defs><linearGradient id="a" x1="-4.6" x2="111.7" y1="15.1" y2="22.7" gradientUnits="userSpaceOnUse"><stop offset="0" stop-color="#00ff97"/><stop offset="1" stop-color="#76ff1d"/></linearGradient><linearGradient xlink:href="#a" id="b" x1="-4.5" x2="111.8" y1="13.4" y2="21"/><linearGradient xlink:href="#a" id="c" x1="-4.5" x2="111.9" y1="12.5" y2="20.1"/><linearGradient xlink:href="#a" id="d" x1="-4.3" x2="112" y1="10" y2="17.6"/><linearGradient xlink:href="#a" id="e" x1="-4" x2="112.4" y1="5.1" y2="12.7"/><linearGradient xlink:href="#a" id="f" x1="-4.1" x2="112.2" y1="7.6" y2="15.1"/></defs><g data-name="Layer 2"><g data-name="Layer 1"><path fill="url(#a)" d="M13 31h4L4 1H0l13 30z"/><path fill="url(#b)" d="M39 1 28 25 18 1h-5l13 30h4L43 1h-4z"/><path fill="url(#c)" d="M52 1 39 31h5L54 6l11 25h5L57 1h-5z"/><path fill="url(#d)" d="M95 1h-4L81 25 70 1h-4l12 29 1 1h4l9-22 1-3 11 25h4L96 2l-1-1z"/><path fill="url(#e)" d="m166 1-10 24-11-24h-4l13 30h4l13-30h-5z"/><path fill="url(#f)" d="M125 0a16 16 0 1 0 16 16 16 16 0 0 0-16-16Zm0 28a12 12 0 1 1 12-12 12 12 0 0 1-12 12Z"/></g></g></svg>